<?xml version="1.0" encoding="UTF-8"?>
<!DOCTYPE svg PUBLIC "-//W3C//DTD SVG 1.1//EN" "http://www.w3.org/Graphics/SVG/1.1/DTD/svg11.dtd">
<!-- Creator: CorelDRAW Home & Student 2014 -->
<svg xmlns="http://www.w3.org/2000/svg" xml:space="preserve" width="1280px" height="720px" version="1.1" style="shape-rendering:geometricPrecision; text-rendering:geometricPrecision; image-rendering:optimizeQuality; fill-rule:evenodd; clip-rule:evenodd"
viewBox="0 0 1280000 720000"
 xmlns:xlink="http://www.w3.org/1999/xlink">
 <defs>
  <style type="text/css">
   <![CDATA[
    .fil1 {fill:#296600}
    .fil4 {fill:#488A1C}
    .fil6 {fill:#699B22}
    .fil0 {fill:#75502B}
    .fil7 {fill:#8AAB28}
    .fil8 {fill:#ABBC2D}
    .fil3 {fill:#ACA35E}
    .fil9 {fill:#CCCC33}
    .fil5 {fill:#FFFFCC}
    .fil2 {fill:#75502B;fill-rule:nonzero}
   ]]>
  </style>
 </defs>
 <g id="Layer_x0020_1">
  <metadata id="CorelCorpID_0Corel-Layer"/>
  <g id="Title">
   <polygon id="root" class="fil0" points="469241,337403 476236,345491 473334,359315 478453,353513 482208,366141 477771,381842 483915,397885 481866,380818 487328,363411 493130,364776 484939,356926 481866,347710 482671,338981 478213,336002 "/>
   <path id="leaf_down" class="fil1" d="M523206 237231c38323,9026 39333,20781 29720,49054 -7168,-1364 -23918,-13556 -29720,-49054z"/>
   <path id="stroke" class="fil2" d="M539562 309271c0,8679 -3584,15814 -10777,21377 -7193,5563 -17010,8359 -29474,8359 -7049,0 -13516,-844 -19400,-2505 -5883,-1689 -10806,-3524 -14796,-5534l0 -17998 845 0c5038,3843 10660,6902 16834,9174 6176,2271 12089,3408 17738,3408 9671,0 22428,-2052 22428,-14244 0,-3757 -1077,-6582 -3234,-8504 -4221,-3825 -15365,-5618 -21291,-6758 -9265,-1694 -21656,-4421 -27728,-11971 -3494,-4281 -5243,-9553 -5243,-15786 0,-31064 48879,-37510 70428,-26339l0 14056c-2353,0 -40588,-8909 -50753,2058 -4172,4497 -4535,12753 598,16954 5014,4105 15006,5670 21466,6902 9400,1732 19351,3501 26329,10632 4019,4223 6030,9786 6030,16719z"/>
   <path id="seed_1" class="fil3" d="M475916 337774c-2630,-118 -5917,701 -7824,-1115 -3896,-3707 -7586,-8627 -8045,-13985 -401,-4672 1829,-10264 5744,-12847 4171,-2752 10196,-2300 14972,-832 4436,1363 9540,4301 10829,8759 1851,6406 1557,14594 -2553,19846 -2695,3442 -8754,369 -13123,174z"/>
   <path id="leaf_up_x0020_" class="fil4" d="M519422 237309c39354,-1201 43371,9892 41404,39690 -7277,538 -26612,-6904 -41404,-39690z"/>
   <path id="text_x0020_" class="fil2" d="M593459 314644c0,3859 -554,7398 -1675,10588 -1986,5751 -5732,10471 -11345,13004 -6722,3036 -14641,1864 -20970,-1587 0,6640 0,13281 0,19921 -2679,0 -5359,0 -8039,0 0,-21727 0,-43455 0,-65183 2680,0 5360,0 8039,0 0,1665 0,3330 0,4995 4461,-3732 9831,-6305 15728,-6305 13938,0 18262,12679 18262,24567zm-8301 175c0,-8350 -1934,-17141 -12014,-17141 -4958,0 -9808,2471 -13675,5418 0,8990 0,17980 0,26970 13308,6020 25689,2557 25689,-15247zm50504 -14694c-2299,0 -5060,-786 -7907,-786 -2476,0 -4879,553 -7179,1645 -2316,1092 -4530,2505 -6670,4238 0,11262 0,22524 0,33786 -2680,0 -5360,0 -8039,0 0,-15873 0,-31748 0,-47621 2679,0 5359,0 8039,0 0,2345 0,4690 0,7034 3188,-2563 5999,-4369 8446,-5432 4584,-2003 8596,-1858 13310,-1093 0,2744 0,5486 0,8229zm48131 15087c0,13818 -7081,25106 -21946,25106 -14940,0 -22005,-11201 -22005,-25106 0,-13884 7078,-25135 22005,-25135 14852,0 21946,11337 21946,25135zm-8300 0c0,-9170 -2941,-18145 -13646,-18145 -10785,0 -13703,8885 -13703,18145 0,9095 3123,18116 13703,18116 10555,0 13646,-9063 13646,-18116zm60290 23796c-2679,0 -5360,0 -8039,0 0,-1767 0,-3534 0,-5301 -4867,3846 -9622,6611 -15990,6611 -22225,0 -15903,-33716 -15903,-48931 2679,0 5359,0 8039,0 0,10102 -900,23600 334,33334 1757,12970 16572,7678 23520,2243 0,-11859 0,-23718 0,-35577 2679,0 5360,0 8039,0 0,15873 0,31748 0,47621zm40440 -408c-6459,1755 -15759,2632 -20752,-2563 -5843,-6010 -3800,-29159 -3800,-37922 -1806,0 -3612,0 -5418,0 0,-2242 0,-4485 0,-6728 1806,0 3612,0 5418,0 0,-4573 0,-9145 0,-13718 2679,0 5359,0 8038,0 0,4573 0,9145 0,13718 5505,0 11010,0 16514,0 0,2243 0,4486 0,6728 -5504,0 -11009,0 -16514,0 0,7248 0,14495 0,21743 0,11522 4076,16572 16092,11548 872,0 422,6150 422,7194zm43777 -13413c0,17734 -25425,16796 -37223,10850 0,-1194 -442,-9000 422,-9000 6487,4950 28500,11641 28500,-830 0,-4820 -3804,-5828 -7820,-6728 -8921,-2058 -20927,-2620 -20927,-14781 0,-10388 10308,-14534 19266,-14534 5018,0 11474,1263 15946,3582 0,2855 0,5709 0,8563 -982,0 -9425,-5417 -16484,-5417 -4295,0 -10427,1396 -10427,6742 0,6295 7732,6959 12567,7879 8129,1495 16180,3609 16180,13674z"/>
   <path id="seed_2" class="fil5" d="M475917 337773c-2157,-97 -4757,438 -6676,-370 2388,-1344 4443,-4350 7164,-4027 3223,383 5214,3872 7820,5808 -2682,-219 -5779,-1297 -8308,-1411z"/>
   <g id="circles">
    <path id="c_5" class="fil4" d="M799445 359330c-9941,0 -18001,8059 -18001,18000 0,9941 8060,18000 18001,18000 9941,0 18000,-8059 18000,-18000 0,-9941 -8059,-18000 -18000,-18000z"/>
    <path id="c_4" class="fil6" d="M730061 360454c-9321,0 -16876,7555 -16876,16875 0,9320 7555,16875 16876,16875 9319,0 16875,-7555 16875,-16875 0,-9320 -7556,-16875 -16875,-16875z"/>
    <path id="c_3" class="fil7" d="M660675 361579c-8698,0 -15751,7052 -15751,15750 0,8698 7053,15750 15751,15750 8698,0 15750,-7052 15750,-15750 0,-8698 -7052,-15750 -15750,-15750z"/>
    <path id="c_2" class="fil8" d="M591290 362704c-8078,0 -14625,6548 -14625,14625 0,8077 6547,14625 14625,14625 8076,0 14625,-6548 14625,-14625 0,-8077 -6549,-14625 -14625,-14625z"/>
    <path id="c_1" class="fil9" d="M521903 363830c-7455,0 -13500,6044 -13500,13500 0,7455 6045,13500 13500,13500 7456,0 13500,-6045 13500,-13500 0,-7456 -6044,-13500 -13500,-13500z"/>
   </g>
  </g>
 </g>
</svg>
